<svg width="16" height="16" viewBox="0 0 16 16" fill="none" xmlns="http://www.w3.org/2000/svg">
<path d="M12.5 1.69062C14.4688 3.09687 15.75 5.39687 15.75 8C15.75 12.275 12.2875 15.7406 8.01563 15.75C3.75001 15.7594 0.256256 12.2812 0.250006 8.0125C0.246881 5.40937 1.52813 3.10312 3.49376 1.69375C3.85938 1.43438 4.36876 1.54375 4.58751 1.93438L5.08126 2.8125C5.26563 3.14062 5.17813 3.55625 4.87501 3.78125C3.57813 4.74375 2.75001 6.26875 2.75001 7.99687C2.74688 10.8812 5.07813 13.25 8.00001 13.25C10.8625 13.25 13.2688 10.9312 13.25 7.96562C13.2406 6.34687 12.4781 4.78438 11.1219 3.77813C10.8188 3.55313 10.7344 3.1375 10.9188 2.8125L11.4125 1.93438C11.6313 1.54688 12.1375 1.43125 12.5 1.69062ZM9.25001 8.25V0.75C9.25001 0.334375 8.91563 0 8.50001 0H7.50001C7.08438 0 6.75001 0.334375 6.75001 0.75V8.25C6.75001 8.66563 7.08438 9 7.50001 9H8.50001C8.91563 9 9.25001 8.66563 9.25001 8.25Z" fill="white"/>
</svg>
